<svg width="292" height="350" viewBox="0 0 292 350" fill="none" xmlns="http://www.w3.org/2000/svg">
<path d="M3 339V59.7767L62.8889 3H281C285.418 3 289 6.58173 289 11V339C289 343.418 285.418 347 281 347H11C6.58172 347 3 343.418 3 339Z" fill="#D9EDFF"/>
<path d="M3 59.7767V339C3 343.418 6.58172 347 11 347H281C285.418 347 289 343.418 289 339V11C289 6.58173 285.418 3 281 3H62.8889M3 59.7767L62.8889 3M3 59.7767H54.8889C59.3072 59.7767 62.8889 56.195 62.8889 51.7767V3" stroke="#ADC9EA" stroke-width="6"/>
<ellipse cx="146.5" cy="178" rx="68.5" ry="69" fill="#7CC0F1"/>
<mask id="path-4-inside-1_2_24" fill="white">
<ellipse cx="127.368" cy="160.226" rx="7.0023" ry="7.05341"/>
</mask>
<ellipse cx="127.368" cy="160.226" rx="7.0023" ry="7.05341" fill="#D9EDFF"/>
<path d="M124.37 160.226C124.37 158.667 125.644 157.279 127.368 157.279V177.279C136.826 177.279 144.37 169.576 144.37 160.226H124.37ZM127.368 157.279C129.092 157.279 130.365 158.667 130.365 160.226H110.365C110.365 169.576 117.909 177.279 127.368 177.279V157.279ZM130.365 160.226C130.365 161.785 129.092 163.173 127.368 163.173V143.173C117.909 143.173 110.365 150.876 110.365 160.226H130.365ZM127.368 163.173C125.644 163.173 124.37 161.785 124.37 160.226H144.37C144.37 150.876 136.826 143.173 127.368 143.173V163.173Z" fill="#D9EDFF" mask="url(#path-4-inside-1_2_24)"/>
<mask id="path-6-inside-2_2_24" fill="white">
<ellipse cx="165.88" cy="160.226" rx="7.0023" ry="7.05341"/>
</mask>
<ellipse cx="165.88" cy="160.226" rx="7.0023" ry="7.05341" fill="#D9EDFF"/>
<path d="M162.883 160.226C162.883 158.667 164.156 157.279 165.88 157.279V177.279C175.339 177.279 182.883 169.576 182.883 160.226H162.883ZM165.88 157.279C167.604 157.279 168.878 158.667 168.878 160.226H148.878C148.878 169.576 156.422 177.279 165.88 177.279V157.279ZM168.878 160.226C168.878 161.785 167.604 163.173 165.88 163.173V143.173C156.422 143.173 148.878 150.876 148.878 160.226H168.878ZM165.88 163.173C164.156 163.173 162.883 161.785 162.883 160.226H182.883C182.883 150.876 175.339 143.173 165.88 143.173V163.173Z" fill="#D9EDFF" mask="url(#path-6-inside-2_2_24)"/>
<path d="M109.862 183.649C129.304 206.042 165.24 205.508 183.386 183.649" stroke="#D9EDFF" stroke-width="6" stroke-linejoin="round"/>
</svg>
